<?xml version="1.0" standalone="no"?>
<!DOCTYPE svg PUBLIC "-//W3C//DTD SVG 20010904//EN"
 "http://www.w3.org/TR/2001/REC-SVG-20010904/DTD/svg10.dtd">
<svg version="1.0" xmlns="http://www.w3.org/2000/svg"
 width="280.000000pt" height="280.000000pt" viewBox="0 0 280.000000 280.000000"
 preserveAspectRatio="xMidYMid meet">
<metadata>
Created by potrace 1.11, written by Peter Selinger 2001-2013
</metadata>
<g transform="translate(0.000000,280.000000) scale(0.100000,-0.100000)"
fill="#000000" stroke="none">
<path d="M2125 2014 c-10 -8 -21 -11 -25 -9 -5 3 -10 -2 -14 -10 -3 -8 -15
-15 -26 -15 -11 0 -20 -4 -20 -10 0 -5 -7 -10 -15 -10 -8 0 -15 -4 -15 -10 0
-5 -6 -10 -13 -10 -7 0 -23 -10 -37 -22 -14 -13 -48 -41 -75 -63 -70 -56 -90
-73 -149 -127 -28 -26 -55 -48 -59 -48 -5 0 -5 -4 -2 -10 3 -5 2 -10 -4 -10
-9 0 -63 -53 -287 -285 -32 -33 -57 -63 -56 -67 1 -5 -2 -8 -7 -8 -9 0 -140
-126 -141 -135 0 -3 -3 -4 -6 -2 -3 1 -12 -11 -20 -26 -8 -15 -19 -25 -24 -22
-5 3 -11 -3 -14 -13 -4 -10 -18 -25 -31 -32 -14 -7 -25 -20 -25 -27 0 -8 -5
-11 -12 -7 -7 4 -8 3 -4 -4 4 -7 0 -12 -11 -13 -12 0 -14 -2 -4 -6 7 -3 23 5
35 18 13 13 38 35 56 49 19 14 52 42 74 62 23 21 45 38 49 38 5 0 6 4 2 9 -3
5 4 12 15 16 11 3 20 11 20 16 0 5 6 9 14 9 8 0 18 9 21 20 3 11 12 20 19 20
7 0 24 12 38 28 14 15 47 45 73 67 26 22 55 47 64 55 9 8 37 31 61 50 25 19
54 43 64 52 11 10 28 20 38 24 10 3 18 10 18 15 0 5 5 9 11 9 6 0 23 9 39 20
15 11 30 17 34 13 3 -3 6 -1 6 5 0 7 9 12 19 12 11 0 22 4 25 9 9 14 75 20
107 9 17 -6 34 -21 39 -34 10 -24 -1 -76 -21 -100 -6 -8 -9 -14 -5 -14 14 0
-43 -56 -104 -101 -36 -27 -70 -53 -76 -58 -7 -5 -15 -7 -18 -4 -3 4 -6 1 -6
-6 0 -7 -4 -9 -10 -6 -5 3 -10 2 -10 -2 0 -5 -10 -9 -22 -10 -12 -1 -25 -9
-30 -17 -5 -8 -17 -13 -28 -11 -13 3 -17 -1 -13 -12 3 -8 9 -10 12 -5 3 5 14
8 24 6 9 -1 15 1 12 6 -3 5 12 14 32 21 21 6 43 14 48 18 6 3 12 6 15 6 3 0
23 12 45 26 22 14 55 35 74 45 90 51 149 95 220 164 19 19 39 34 43 32 5 -1 8
2 8 8 0 5 8 18 18 28 38 39 72 87 72 100 0 8 5 10 13 6 6 -4 9 -4 5 1 -4 4 -1
20 8 36 8 16 11 29 7 29 -5 0 -2 4 6 9 16 10 26 151 11 151 -6 0 -10 6 -10 14
0 7 -12 25 -27 40 -22 22 -34 26 -74 25 -25 -1 -54 -8 -64 -15z"/>
<path d="M1731 1792 c-13 -9 -41 -32 -61 -52 -56 -52 -74 -65 -82 -62 -5 1 -8
-5 -8 -13 0 -8 -3 -15 -8 -15 -6 0 -58 -43 -141 -119 -14 -13 -50 -44 -80 -70
-30 -25 -65 -56 -78 -69 -12 -13 -23 -20 -23 -17 0 3 -16 -10 -37 -30 -20 -19
-40 -35 -45 -35 -4 0 -17 -8 -27 -17 -36 -33 -50 -43 -59 -43 -5 0 -15 -7 -22
-15 -7 -8 -16 -12 -21 -9 -5 3 -9 1 -9 -5 0 -10 -38 -27 -52 -23 -5 1 -8 -3
-8 -8 0 -5 -3 -9 -7 -9 -5 1 -10 0 -13 -1 -3 -1 -25 -3 -50 -5 -99 -4 -117 96
-32 183 17 17 27 33 24 36 -3 3 1 6 9 6 8 0 23 9 32 21 10 11 31 25 47 31 17
5 30 16 30 24 0 8 3 13 8 13 13 -3 72 25 72 34 0 4 6 5 13 1 9 -5 9 -4 0 6 -9
10 -18 8 -42 -9 -17 -13 -31 -20 -31 -16 0 3 -9 1 -20 -5 -11 -6 -18 -15 -15
-20 3 -5 0 -12 -6 -16 -8 -4 -9 -3 -5 4 10 16 -19 15 -36 0 -16 -15 -47 -35
-68 -45 -8 -4 -19 -11 -25 -15 -37 -30 -105 -78 -105 -74 0 8 -162 -155 -188
-189 -66 -87 -101 -224 -71 -283 32 -64 83 -88 142 -67 20 7 37 11 37 8 0 -2
7 3 16 11 8 9 20 14 25 11 5 -4 9 -1 9 4 0 6 7 11 15 11 8 0 15 5 15 10 0 6 5
10 10 10 6 0 16 4 23 10 58 47 77 61 77 55 0 -4 14 7 30 25 17 18 30 30 30 27
0 -3 13 7 28 21 46 45 117 106 122 107 6 0 45 39 87 88 18 21 33 34 33 30 0
-4 9 6 20 22 11 17 20 27 20 23 0 -4 24 18 53 49 28 31 79 84 112 118 33 33
77 80 98 103 20 23 37 40 37 38 0 -6 173 172 182 188 5 9 12 15 16 13 4 -2 15
4 25 15 21 22 10 23 -22 0z"/>
<path d="M1335 1600 c-3 -6 1 -7 9 -4 18 7 21 14 7 14 -6 0 -13 -4 -16 -10z"/>
<path d="M1224 1589 c-4 -7 -3 -9 4 -5 6 3 13 2 17 -4 8 -14 25 -13 25 2 0 6
-3 8 -7 5 -3 -4 -12 -2 -19 4 -8 7 -14 6 -20 -2z"/>
<path d="M1180 1575 c-7 -9 -10 -18 -6 -22 3 -3 6 -1 6 5 0 6 9 9 21 7 17 -4
19 -2 9 10 -15 18 -15 18 -30 0z"/>
<path d="M1150 1562 c0 -7 -10 -12 -22 -12 -19 0 -20 -2 -8 -10 16 -10 50 14
37 26 -4 4 -7 2 -7 -4z"/>
<path d="M1575 1249 c-4 -6 -14 -8 -24 -4 -12 5 -13 4 -4 -6 10 -10 15 -9 27
1 9 7 23 10 31 6 9 -3 13 -2 10 4 -8 13 -32 13 -40 -1z"/>
<path d="M1489 1217 c4 -4 18 -3 32 2 23 9 22 9 -8 8 -18 -1 -28 -6 -24 -10z"/>
<path d="M1405 1200 c-3 -6 1 -7 9 -4 18 7 21 14 7 14 -6 0 -13 -4 -16 -10z"/>
</g>
</svg>
